<?xml version="1.0" encoding="UTF-8" standalone="no"?>
<svg width="28px" height="21px" viewBox="0 0 28 21" version="1.1" xmlns="http://www.w3.org/2000/svg" xmlns:xlink="http://www.w3.org/1999/xlink">
    <!-- Generator: Sketch 42 (36781) - http://www.bohemiancoding.com/sketch -->
    <title>Combined Shape</title>
    <desc>Created with Sketch.</desc>
    <defs>
        <path d="M28.3373437,19.1482376 C28.3998792,19.1446669 28.4628861,19.1428571 28.5263158,19.1428571 C29.0972502,19.1428571 29.6339383,19.2894828 30.1007783,19.5471324 C29.8631481,19.5967863 29.6365975,19.6764636 29.425306,19.7819993 C29.5886124,20.0192585 29.6842105,20.3067359 29.6842105,20.6165414 C29.6842105,21.4304347 29.0244196,22.0902256 28.2105263,22.0902256 C27.396633,22.0902256 26.7368421,21.4304347 26.7368421,20.6165414 C26.7368421,19.802648 27.396633,19.1428571 28.2105263,19.1428571 C28.2532477,19.1428571 28.2955446,19.144675 28.3373437,19.1482376 L28.3373437,19.1482376 Z M36.4210526,29.4586466 L36.4210526,27.5639098 L40,26.6220815 L39.9951907,29.5639098 C39.8852156,31.9659911 37.9029352,33.8796992 35.4736842,33.8796992 C32.973869,33.8796992 30.9473684,31.8531986 30.9473684,29.3533835 C30.9473684,29.2472271 30.9510229,29.1419243 30.9473684,29.037594 L30.9473684,20.0908307 C30.9473684,18.5199109 29.6749146,17.2481203 28.1052632,17.2481203 C26.5352666,17.2481203 25.2631579,18.5208451 25.2631579,20.0908307 L25.2631579,33.8773858 L21.4736842,33.8773858 L21.4736842,28.0378965 L21.4736842,22.4066201 C21.4736842,20.8357004 20.2012303,19.5639098 18.6315789,19.5639098 C17.0615824,19.5639098 15.7894737,20.8366346 15.7894737,22.4066201 L15.7894737,33.8773858 L12,33.8773858 L12,22.4075985 C12,18.7442041 14.9682537,15.7744361 18.6315789,15.7744361 C19.9883723,15.7744361 21.2499981,16.1818394 22.3007659,16.8811006 C23.4313925,14.8402044 25.6066517,13.4586466 28.1052632,13.4586466 C31.7677831,13.4586466 34.7368421,16.4272836 34.7368421,20.091809 L34.7368421,24.5411156 L34.7368421,29.4586466 C34.7368421,29.9237285 35.1138655,30.3007519 35.5789474,30.3007519 C36.0440293,30.3007519 36.4210526,29.9237285 36.4210526,29.4586466 Z" id="path-1"></path>
    </defs>
    <g stroke="none" stroke-width="1" fill="none" fill-rule="evenodd">
        <g transform="translate(-721.000000, -765.000000)">
            <g  transform="translate(685.000000, 752.000000)">
                <g transform="translate(24.000000, 0.000000)">
                    <mask id="mask-2" fill="white">
                        <use xlink:href="#path-1"></use>
                    </mask>
                    <use id="Combined-Shape" fill="#DDDDDD" xlink:href="#path-1"></use>
                </g>
            </g>
        </g>
    </g>
</svg>
